<?xml version="1.0" encoding="UTF-8"?> <svg xmlns="http://www.w3.org/2000/svg" width="522" height="309" viewBox="0 0 522 309" fill="none"><path fill-rule="evenodd" clip-rule="evenodd" d="M403.328 20.8249H118.317C64.0865 20.8249 20.1237 64.7877 20.1237 119.019V190.075C20.1237 244.306 64.0865 288.268 118.317 288.268H403.328C457.559 288.268 501.522 244.306 501.522 190.075V119.019C501.522 64.7877 457.559 20.8249 403.328 20.8249ZM118.317 0.766602C53.0087 0.766602 0.0654297 53.7098 0.0654297 119.019V190.075C0.0654297 255.383 53.0086 308.327 118.317 308.327H403.328C468.637 308.327 521.58 255.383 521.58 190.075V119.019C521.58 53.7098 468.637 0.766602 403.328 0.766602H118.317Z" fill="#0455BF"></path><path d="M206.013 228.094L145.798 162.196H121.532V228.094H93.6707V80.9997H121.532V144.544H145.198L203.317 80.9997H238.368L168.266 153.37L240.765 228.094H206.013Z" fill="#0455BF"></path><path d="M410.315 151.605C431.003 156.704 441.347 168.374 441.347 186.613C441.347 200.93 435.623 211.423 424.174 218.091C412.726 224.76 394.448 228.094 369.341 228.094H267.509V80.9997H360.604C385.51 80.9997 403.687 84.0396 415.136 90.1195C426.584 96.0032 432.309 105.515 432.309 118.656C432.309 133.169 424.978 144.152 410.315 151.605ZM360.002 98.6509H295.528V143.662H364.822C378.48 143.662 388.422 141.897 394.649 138.366C401.076 134.64 404.29 128.756 404.29 120.715C404.29 113.066 400.674 107.477 393.443 103.946C386.413 100.416 375.267 98.6509 360.002 98.6509ZM365.123 210.442C381.794 210.442 393.945 208.481 401.578 204.559C409.411 200.636 413.328 194.36 413.328 185.731C413.328 177.297 409.612 171.119 402.181 167.197C394.95 163.274 383.401 161.313 367.533 161.313H295.528V210.442H365.123Z" fill="#0455BF"></path></svg> 